<?xml version="1.0" encoding="UTF-8" standalone="no"?>
<!-- Created with Inkscape (http://www.inkscape.org/) -->

<svg
   xmlns:dc="http://purl.org/dc/elements/1.1/"
   xmlns:cc="http://creativecommons.org/ns#"
   xmlns:rdf="http://www.w3.org/1999/02/22-rdf-syntax-ns#"
   xmlns:svg="http://www.w3.org/2000/svg"
   xmlns="http://www.w3.org/2000/svg"
   xmlns:sodipodi="http://sodipodi.sourceforge.net/DTD/sodipodi-0.dtd"
   xmlns:inkscape="http://www.inkscape.org/namespaces/inkscape"
   width="2.335499mm"
   height="7.7704329mm"
   viewBox="0 0 2.3354989 7.7704332"
   version="1.1"
   id="svg8"
   inkscape:version="0.92.4 (5da689c313, 2019-01-14)"
   sodipodi:docname="accidentalSharp.svg">
  <defs
     id="defs2" />
  <sodipodi:namedview
     id="base"
     pagecolor="#ffffff"
     bordercolor="#666666"
     borderopacity="1.0"
     inkscape:pageopacity="0.0"
     inkscape:pageshadow="2"
     inkscape:zoom="5.4424356"
     inkscape:cx="16.701013"
     inkscape:cy="-26.213237"
     inkscape:document-units="mm"
     inkscape:current-layer="layer1"
     showgrid="false"
     inkscape:window-width="2560"
     inkscape:window-height="1377"
     inkscape:window-x="-8"
     inkscape:window-y="-8"
     inkscape:window-maximized="1"
     fit-margin-top="0"
     fit-margin-left="0"
     fit-margin-right="0"
     fit-margin-bottom="0" />
  <metadata
     id="metadata5">
    <rdf:RDF>
      <cc:Work
         rdf:about="">
        <dc:format>image/svg+xml</dc:format>
        <dc:type
           rdf:resource="http://purl.org/dc/dcmitype/StillImage" />
        <dc:title></dc:title>
      </cc:Work>
    </rdf:RDF>
  </metadata>
  <g
     inkscape:label="Layer 1"
     inkscape:groupmode="layer"
     id="layer1"
     transform="translate(-77.568718,-10.307661)">
    <path
       d="m 77.569189,14.189417 m 1.568584,-3.867246 c 0.02161,-0.01451 0.0289,-0.01451 0.05782,-0.01451 0.07228,0 0.122875,0.02893 0.144583,0.09398 l 0.0073,0.02161 0.0073,0.946932 v 0.954162 l 0.187949,-0.0506 c 0.108433,-0.02892 0.187947,-0.03613 0.238538,-0.03613 0.06506,0 0.09398,0.02161 0.115654,0.0795 0.0073,0.02161 0.0073,0.187946 0.0073,0.368652 0,0.173484 0,0.354197 -0.0073,0.361426 -0.02892,0.07228 -0.0506,0.0795 -0.245769,0.130111 -0.24577,0.06505 -0.296369,0.07228 -0.296369,0.07228 0,0 0,0.187948 0,0.469851 0,0.101212 0,0.209621 0,0.325282 v 0.780678 l 0.187948,-0.0506 c 0.115653,-0.0289 0.187946,-0.03613 0.238539,-0.03613 0.03613,0 0.06506,0.0073 0.08674,0.03613 0.03614,0.04337 0.03614,0.03613 0.03614,0.303598 v 0.108418 0.115654 c 0,0.267455 0,0.260226 -0.03614,0.296369 -0.02891,0.0289 -0.02161,0.0289 -0.354196,0.108418 -0.07228,0.02161 -0.137347,0.04337 -0.144583,0.04337 h -0.01451 v 0.961391 l -0.0073,0.968619 -0.0073,0.02892 c -0.0216,0.05784 -0.0795,0.08674 -0.144567,0.08674 -0.04337,0 -0.108434,-0.0289 -0.137346,-0.08674 l -0.0073,-0.02892 v -0.925248 -0.925248 h -0.0073 l -0.166251,0.04337 -0.310826,0.0795 c -0.0795,0.0216 -0.151788,0.03613 -0.151788,0.03613 -0.01451,0 -0.01451,0.0506 -0.01451,0.983074 v 0.997534 l -0.0073,0.02161 c -0.0289,0.05782 -0.08674,0.08674 -0.137347,0.08674 -0.05784,0 -0.122875,-0.0289 -0.151803,-0.08674 l -0.0073,-0.02161 v -0.954156 c 0,-0.881878 0,-0.946933 -0.0073,-0.946933 0,0 0,0 0,0 -0.0795,0.02161 -0.354194,0.09398 -0.383107,0.09398 -0.06506,0 -0.108434,-0.04337 -0.137347,-0.09398 0,-0.02891 0,-0.02891 0,-0.368653 v -0.339739 l 0.0073,-0.02891 c 0.02892,-0.07228 0.02892,-0.07228 0.43371,-0.173482 l 0.08674,-0.02161 v -0.787905 c 0,-0.73008 0,-0.780679 -0.0073,-0.780679 0,0 0,0 0,0 -0.0795,0.02161 -0.354197,0.08674 -0.38311,0.08674 -0.06506,0 -0.108433,-0.03613 -0.137347,-0.08674 0,-0.02892 0,-0.02892 0,-0.368653 v -0.339741 l 0.0073,-0.0289 c 0.0289,-0.07228 0.0289,-0.07228 0.433708,-0.173483 l 0.08674,-0.02161 v -0.961391 -0.96139 l 0.0073,-0.0289 c 0.0289,-0.0506 0.09398,-0.09398 0.151803,-0.09398 0.02161,0 0.03613,0.01451 0.05785,0.0216 0.02891,0.0073 0.05784,0.04337 0.0795,0.07228 l 0.0073,0.02891 v 0.925248 0.91802 h 0.04337 c 0.01451,-0.0073 0.144583,-0.03613 0.274683,-0.06506 l 0.281913,-0.08674 0.0506,-0.0073 v -0.983074 -0.990306 l 0.0073,-0.02161 c 0.02161,-0.02891 0.04337,-0.06506 0.0795,-0.0795 m -0.08674,3.80219 c 0,-0.440939 0,-0.795136 0,-0.795136 v 0 c -0.0073,0 -0.0795,0.02161 -0.166252,0.04337 l -0.318053,0.0795 c -0.0795,0.02161 -0.151803,0.03613 -0.151803,0.03613 -0.01451,0 -0.01451,0.04337 -0.01451,0.787905 v 0.795137 l 0.04337,-0.01451 c 0.01451,-0.0073 0.144567,-0.03613 0.274685,-0.06506 l 0.281909,-0.07228 0.0506,-0.02161 v -0.773448"
       id="path5"
       inkscape:connector-curvature="0"
       style="fill:#000000;stroke:none;stroke-width:0.07925986;stroke-dasharray:none" />
  </g>
</svg>
