<?xml version="1.0" standalone="no"?>
<!DOCTYPE svg PUBLIC "-//W3C//DTD SVG 20010904//EN"
 "http://www.w3.org/TR/2001/REC-SVG-20010904/DTD/svg10.dtd">
<svg version="1.0" xmlns="http://www.w3.org/2000/svg"
 width="204.000000pt" height="51.000000pt" viewBox="0 0 204.000000 51.000000"
 preserveAspectRatio="xMidYMid meet">

<g transform="translate(0.000000,51.000000) scale(0.100000,-0.100000)"
fill="#000000" stroke="none">
<path d="M189 452 c4 -10 7 -45 6 -80 -1 -48 2 -65 14 -72 12 -6 7 -8 -18 -8
-19 1 -37 -4 -39 -10 -2 -7 -19 -12 -38 -12 l-34 0 0 -50 c0 -65 25 -90 90
-90 63 0 90 28 90 93 0 26 -4 47 -9 47 -4 0 -8 35 -7 78 1 82 -8 105 -44 115
-16 4 -18 2 -11 -11z"/>
<path d="M273 210 c0 -30 2 -43 4 -27 2 15 2 39 0 55 -2 15 -4 2 -4 -28z"/>
<path d="M261 138 c-1 -26 -41 -48 -91 -49 -25 -1 -37 -3 -27 -6 11 -3 17 -14
17 -33 0 -16 5 -32 10 -35 6 -4 10 8 10 29 0 29 4 36 19 36 27 0 75 43 68 61
-4 11 -6 10 -6 -3z"/>
<path d="M70 133 c0 -5 10 -18 23 -29 l22 -19 -20 25 c-11 14 -21 27 -22 29
-2 2 -3 0 -3 -6z"/>
</g>
</svg>
