<?xml version="1.0" encoding="UTF-8" standalone="no"?>
<!-- Created with Inkscape (http://www.inkscape.org/) -->

<svg
   xmlns:dc="http://purl.org/dc/elements/1.1/"
   xmlns:cc="http://creativecommons.org/ns#"
   xmlns:rdf="http://www.w3.org/1999/02/22-rdf-syntax-ns#"
   xmlns:svg="http://www.w3.org/2000/svg"
   xmlns="http://www.w3.org/2000/svg"
   xmlns:sodipodi="http://sodipodi.sourceforge.net/DTD/sodipodi-0.dtd"
   xmlns:inkscape="http://www.inkscape.org/namespaces/inkscape"
   width="3.36567mm"
   height="2.9330599mm"
   viewBox="0 0 3.36567 2.93306"
   version="1.1"
   id="svg8"
   inkscape:version="0.92.4 (5da689c313, 2019-01-14)"
   sodipodi:docname="notehead.svg">
  <defs
     id="defs2" />
  <sodipodi:namedview
     id="base"
     pagecolor="#ffffff"
     bordercolor="#666666"
     borderopacity="1.0"
     inkscape:pageopacity="0.0"
     inkscape:pageshadow="2"
     inkscape:zoom="10.806795"
     inkscape:cx="21.012586"
     inkscape:cy="-7.226952"
     inkscape:document-units="mm"
     inkscape:current-layer="layer1"
     showgrid="false"
     inkscape:window-width="2560"
     inkscape:window-height="1377"
     inkscape:window-x="2552"
     inkscape:window-y="-8"
     inkscape:window-maximized="1"
     fit-margin-top="0"
     fit-margin-left="0"
     fit-margin-right="0"
     fit-margin-bottom="0" />
  <metadata
     id="metadata5">
    <rdf:RDF>
      <cc:Work
         rdf:about="">
        <dc:format>image/svg+xml</dc:format>
        <dc:type
           rdf:resource="http://purl.org/dc/dcmitype/StillImage" />
        <dc:title></dc:title>
      </cc:Work>
    </rdf:RDF>
  </metadata>
  <g
     inkscape:label="Layer 1"
     inkscape:groupmode="layer"
     id="layer1"
     transform="translate(-139.89014,-45.168849)">
    <path
       d="m 139.89014,46.631448 m 2.06021,-1.462599 c 0.0314,0 0.0787,0 0.0865,0 0,0 0.008,0 0.008,0 0,0 0.0473,0 0.0865,0 0.7077,0.03931 1.12446,0.503259 1.12446,1.085154 0,0.283083 -0.0944,0.605484 -0.33026,0.912157 -0.44821,0.605485 -1.17951,0.935749 -1.81646,0.935749 -0.4954,0 -0.92001,-0.196586 -1.12447,-0.597621 -0.0628,-0.157268 -0.0944,-0.306673 -0.0944,-0.471807 0,-0.857113 0.95934,-1.808589 2.06021,-1.863632"
       id="path5"
       inkscape:connector-curvature="0"
       style="fill:#000000;stroke:none;stroke-width:0.08401102;stroke-dasharray:none" />
  </g>
</svg>
